# xmcd
#
# Track frame offsets:
#	150
#	18587
#	36107
#	59858
#	76560
#	95219
#	113110
#	135325
#	154513
#	175566
#	191974
#	213948
#	234370
#	252780
#	269438
#	285820
#
# Disc length: 4152 seconds
#
# Revision: 1
# Processed by: cddbd v1.5.2PL0 Copyright (c) Steve Scherf et al.
# Submitted via: EasyCDDAExtractor 15.3.0.1
#
DISCID=d1103610
DTITLE=Sven Zetterberg - Moving In The Right Direction
DYEAR=2004
DGENRE=Blues
TTITLE0=Moving In The Right Direction
TTITLE1=Song From A Worried Heart
TTITLE2=I'm In The Wrong
TTITLE3=Mile After Mile
TTITLE4=A World Outside
TTITLE5=I Passed The Limit
TTITLE6=Love Treated Me Unkind
TTITLE7=It Starts To Take Hold
TTITLE8=Heartaches Was All You Got
TTITLE9=My Way Around
TTITLE10=Since I Been Loving You
TTITLE11=Once In A Lifetime Woman
TTITLE12=Dead Ringer Blues
TTITLE13=You Don't Miss Your Water
TTITLE14=Flunked
TTITLE15=Reap What You Sow
EXTD=
EXTT0=
EXTT1=
EXTT2=
EXTT3=
EXTT4=
EXTT5=
EXTT6=
EXTT7=
EXTT8=
EXTT9=
EXTT10=
EXTT11=
EXTT12=
EXTT13=
EXTT14=
EXTT15=
PLAYORDER=
